# xmcd
#
# Track frame offsets:
#	150
#	17765
#	28826
#	42710
#	61810
#	82459
#	97444
#
# Disc length: 1503 seconds
#
# Revision: 0
# Processed by: cddbd v1.5.2PL0 Copyright (c) Steve Scherf et al.
# Submitted via: dBpowerAMP V4.0
#
DISCID=6605dd07
DTITLE=Various Artist - Hell City
DYEAR=1900
DGENRE=
TTITLE0=Hell City
TTITLE1=A Temível Prisao Do tennessee
TTITLE2=Girls Girls Girls
TTITLE3=A Velha História De Um Homem
TTITLE4=Diablo Fuck Show - Amor E Sangue
TTITLE5=Black Jack
TTITLE6=Enganando A Morte
EXTD=
EXTT0=
EXTT1=
EXTT2=
EXTT3=
EXTT4=
EXTT5=
EXTT6=
PLAYORDER=
